<?xml version="1.0" standalone="no"?><!DOCTYPE svg PUBLIC "-//W3C//DTD SVG 1.1//EN" "http://www.w3.org/Graphics/SVG/1.1/DTD/svg11.dtd"><svg t="1750743024168" class="icon" viewBox="0 0 1170 1024" version="1.1" xmlns="http://www.w3.org/2000/svg" p-id="8289" xmlns:xlink="http://www.w3.org/1999/xlink" width="228.515625" height="200"><path d="M329.565767 131.291149a58.512596 58.512596 0 0 0-43.211803-12.491952 58.524423 58.524423 0 0 0-39.323776 21.864611l-234.183436 292.710815c-17.119148 21.376759-17.119148 51.786161 0 73.177704l234.168652 292.710814c20.534107 24.05255 56.457707 27.437943 81.131159 7.672572 24.673452-19.765372 29.197165-55.555921 10.200529-80.850275L133.449521 469.667807l204.897571-256.41763c20.061039-25.10217 16.143445-61.676238-8.781325-81.959028z m828.386389 302.083474l-234.168652-292.710815c-20.534107-24.05255-56.457707-27.437943-81.131159-7.672571-24.673452 19.780155-29.197165 55.570705-10.200528 80.850275l204.89757 255.841079-204.89757 256.41763c-18.996636 25.27957-14.472924 61.084903 10.200528 80.850275 24.673452 19.780155 60.597052 16.379979 81.131159-7.672571l234.168652-292.710815c17.119148-21.391543 17.119148-51.800944 0-73.177704zM685.505075 1.330504a58.579121 58.579121 0 0 0-44.20229 8.056939 58.506683 58.506683 0 0 0-25.456971 37.017569L440.219325 866.010077a58.559903 58.559903 0 0 0 7.066453 45.69541 58.488943 58.488943 0 0 0 38.008056 26.314407h12.299768c28.088412 0.620902 52.65838-18.789669 58.542163-46.257179l175.611705-819.590281c3.621927-15.566893 0.739169-31.917305-7.983022-45.296259A58.506683 58.506683 0 0 0 685.505075 1.345287z m0 0" fill="#a4579d" p-id="8290"></path></svg>